<svg enable-background="new 0 0 432.6 208.9" viewBox="0 0 432.6 208.9" xmlns="http://www.w3.org/2000/svg" xmlns:xlink="http://www.w3.org/1999/xlink"><clipPath id="a"><path d="m0 0h432.6v208.9h-432.6z"/></clipPath><clipPath id="b"><path d="m0 0h432.6v208.9h-432.6z"/></clipPath><path d="m259.9 36 48.4 68.4-77.9 104.5h6.3l77.9-104.4-44.8-63.4h32.4l29.1 41.2 3.3-4.5 15.8-21.1h-6.4l-12.6 16.9-26.6-37.6z" fill="#0b78be"/><path d="m426.2 0-78 104.5 44.9 63.4h-32.5l-29-41.2-3.4 4.5-15.7 21.1h6.4l12.6-16.9 26.5 37.7h45l-48.5-68.5 78.1-104.6z" fill="#e9531f"/><g fill="#0b78be"><path clip-path="url(#a)" d="m74 85.7c-6.2-3.8-13.2-5.8-21-5.8-13.6 0-23.4 4.8-29.4 14.3v-12.2h-23.6v126.8h24.2l-.1-44.8c2.9 4.2 6.7 6.4 11.5 8.6 4.8 2.3 10.1 3.4 16 3.4 8.1 0 15.4-2.2 22-6.6 6.5-4.4 11.5-10.1 15.1-17.3 3.5-7.2 5.4-16.7 5.4-25.3 0-9.3-1.8-18.4-5.4-25.6-3.6-7.1-8.5-11.7-14.7-15.5m-10.7 59c-4.4 4.8-10 7.2-17 7.2s-12.6-2.4-17-7.2-6.5-10.9-6.5-18.4c0-7.6 2.2-13.8 6.6-18.5 4.4-4.8 10-7.2 16.9-7.2s12.5 2.4 16.9 7.2 6.6 11 6.6 18.5c.1 7.5-2.1 13.6-6.5 18.4"/><path d="m212.4 82.1h24.2v91.1h-24.2z"/><path clip-path="url(#b)" d="m224.5 35.6c-7.5 0-13.7 6.2-13.7 13.8s6.1 13.8 13.7 13.8c7.5 0 13.7-6.2 13.7-13.8-.1-7.6-6.2-13.8-13.7-13.8"/><path clip-path="url(#b)" d="m181.2 85.7c-6.2-3.8-13.2-5.8-21-5.8-13.6 0-23.4 4.8-29.4 14.3v-12.2h-23.5v126.8h24.2l-.1-44.9c2.9 4.2 6.7 6.4 11.5 8.6 4.8 2.3 10.1 3.4 16 3.4 8.1 0 15.4-2.2 22-6.6 6.5-4.4 11.5-10.1 15.1-17.3 3.5-7.2 5.4-16.7 5.4-25.3 0-9.3-1.8-18.4-5.4-25.6-3.8-7-8.6-11.6-14.8-15.4m-10.7 59c-4.4 4.8-10 7.2-17 7.2s-12.6-2.4-17-7.2-6.5-10.9-6.5-18.4c0-7.6 2.2-13.8 6.6-18.5 4.4-4.8 10-7.2 16.9-7.2s12.5 2.4 16.9 7.2 6.6 11 6.6 18.5-2.2 13.6-6.5 18.4"/></g></svg>